<svg width="55" height="56" viewBox="0 0 55 56" fill="none" xmlns="http://www.w3.org/2000/svg">
<path d="M40.75 12.504H44.5357M16.1429 1H38.8571C47.2203 1 54 7.86738 54 16.3387V39.3468C54 47.8182 47.2203 54.6855 38.8571 54.6855H16.1429C7.77969 54.6855 1 47.8182 1 39.3468V16.3387C1 7.86738 7.77969 1 16.1429 1ZM27.5 39.3468C21.2276 39.3468 16.1429 34.1963 16.1429 27.8428C16.1429 21.4893 21.2276 16.3387 27.5 16.3387C33.7724 16.3387 38.8571 21.4893 38.8571 27.8428C38.8571 34.1963 33.7724 39.3468 27.5 39.3468Z" stroke="white" stroke-width="2"/>
</svg>
